<svg aria-hidden="true" style="position: absolute; width: 0; height: 0; overflow: hidden;" version="1.1" xmlns="http://www.w3.org/2000/svg" xmlns:xlink="http://www.w3.org/1999/xlink">
<defs>
<symbol id="icon-settings" viewBox="0 0 32 32">
<path d="M11.425 27.022c-0.709-0.294-1.203-0.325-2.184-0.222-1.006 0.103-1.409 0.1-2.016-0.128-0.409-0.153-0.787-0.406-1.147-0.762-0.359-0.359-0.609-0.738-0.766-1.147-0.228-0.606-0.231-1.009-0.128-2.016 0.1-0.984 0.072-1.478-0.222-2.184-0.231-0.559-0.531-0.956-0.981-1.359-0.094-0.084-0.194-0.169-0.325-0.278 0.059 0.050-0.266-0.219-0.35-0.284-0.919-0.769-1.341-1.469-1.341-2.647s0.422-1.878 1.341-2.647c0.081-0.069 0.409-0.334 0.35-0.284 0.134-0.109 0.231-0.194 0.325-0.278 0.447-0.403 0.747-0.797 0.981-1.359 0.294-0.709 0.325-1.203 0.222-2.184-0.103-1.006-0.1-1.409 0.128-2.016 0.153-0.409 0.406-0.787 0.763-1.147 0.359-0.359 0.737-0.609 1.15-0.766 0.606-0.228 1.009-0.231 2.016-0.128 0.984 0.1 1.478 0.072 2.184-0.222 0.559-0.231 0.956-0.531 1.359-0.981 0.084-0.094 0.169-0.194 0.278-0.325-0.050 0.059 0.219-0.266 0.284-0.35 0.769-0.919 1.469-1.341 2.647-1.341s1.878 0.422 2.647 1.341c0.069 0.081 0.334 0.409 0.284 0.35 0.109 0.134 0.194 0.231 0.278 0.325 0.403 0.447 0.797 0.747 1.359 0.981 0.709 0.294 1.203 0.325 2.184 0.222 1.006-0.103 1.409-0.1 2.016 0.128 0.409 0.153 0.788 0.406 1.147 0.763 0.359 0.359 0.609 0.737 0.762 1.147 0.228 0.606 0.231 1.009 0.128 2.016-0.1 0.984-0.072 1.478 0.222 2.184 0.231 0.559 0.531 0.956 0.981 1.359 0.094 0.084 0.194 0.169 0.325 0.278-0.059-0.050 0.266 0.219 0.35 0.284 0.919 0.769 1.341 1.469 1.341 2.647s-0.422 1.878-1.341 2.647c-0.081 0.069-0.409 0.334-0.35 0.284-0.134 0.109-0.231 0.194-0.325 0.278-0.447 0.403-0.747 0.797-0.981 1.359-0.294 0.709-0.325 1.203-0.222 2.184 0.103 1.006 0.1 1.409-0.128 2.016-0.153 0.409-0.406 0.788-0.762 1.147-0.359 0.359-0.738 0.609-1.147 0.762-0.606 0.228-1.009 0.231-2.016 0.128-0.984-0.1-1.478-0.072-2.184 0.222-0.559 0.231-0.956 0.531-1.359 0.981-0.084 0.094-0.169 0.194-0.278 0.325 0.050-0.059-0.219 0.266-0.284 0.35-0.769 0.919-1.469 1.341-2.647 1.341s-1.878-0.422-2.647-1.341c-0.069-0.081-0.334-0.409-0.284-0.35-0.109-0.134-0.194-0.231-0.278-0.325-0.403-0.447-0.8-0.747-1.359-0.978z"></path>
<path d="M11.759 26.212c2.325 0.962 2.116 2.928 4.231 2.928s1.909-1.966 4.231-2.928c2.325-0.962 3.566 0.575 5.063-0.922s-0.041-2.741 0.922-5.063c0.962-2.325 2.928-2.116 2.928-4.231s-1.966-1.909-2.928-4.231c-0.962-2.325 0.575-3.566-0.922-5.063s-2.741 0.041-5.063-0.922c-2.325-0.963-2.116-2.928-4.231-2.928s-1.909 1.966-4.231 2.928c-2.325 0.963-3.566-0.575-5.063 0.922s0.041 2.741-0.922 5.063c-0.963 2.319-2.928 2.109-2.928 4.228s1.966 1.909 2.928 4.231c0.963 2.325-0.575 3.566 0.922 5.063s2.738-0.041 5.063 0.925z"></path>
<path d="M15.994 24.756c-4.841 0-8.766-3.925-8.766-8.766s3.925-8.766 8.766-8.766 8.766 3.925 8.766 8.766-3.928 8.766-8.766 8.766z"></path>
<path d="M15.994 23.003c3.872 0 7.013-3.141 7.013-7.012s-3.141-7.009-7.012-7.009-7.012 3.138-7.012 7.013 3.137 7.009 7.012 7.009z"></path>
</symbol>
</defs>
</svg>
